# xmcd
# Track frame offsets:
# 150
# 19765
# 38806
# 58117
# 84199
# 119315
# 137134
# 151669
# 172123
# 186640
# 211278
# 224752
# 243625
# 263086
#
# Disc length: 3758 seconds
# Revision: 0
# Processed by: cddbd v1.5.1PL2 Copyright (c) Steve Scherf et al.
# Submitted via: VisiTrax 2.9.10.228 - For more info visit www.synapsa.com
#
DISCID=cd0eac0e
DTITLE=Ghetto - Willie Kent- Willie James Lyons
DYEAR=1998
DGENRE=Blues
TTITLE0=Little Red Rooster
TTITLE1=Nineteen Years Old
TTITLE2=What Will To-morrow Bring
TTITLE3=I'm Not The Same Person
TTITLE4=Ghetto
TTITLE5=Dust My Broom
TTITLE6=I Wonder Why
TTITLE7=You Don't Love Me
TTITLE8=Chili Con Carne
TTITLE9=Blue Guitar
TTITLE10=Sweet Home Chicago
TTITLE11=Bobby's Rock
TTITLE12=Tell Him He Got To Go
TTITLE13=Chicken Shack
EXTD=
EXTT0=
EXTT1=
EXTT2=
EXTT3=
EXTT4=
EXTT5=
EXTT6=
EXTT7=
EXTT8=
EXTT9=
EXTT10=
EXTT11=
EXTT12=
EXTT13=
PLAYORDER=
